<svg width="420" height="18" viewBox="0 0 420 18" fill="none" xmlns="http://www.w3.org/2000/svg">
<path d="M22 12.9688C22 10.2073 24.2386 7.96875 27 7.96875H72C74.7614 7.96875 77 10.2073 77 12.9688C77 15.7302 74.7614 17.9688 72 17.9688H27C24.2386 17.9688 22 15.7302 22 12.9688Z" fill="#00CCCC"/>
<path d="M103 12.9688C103 10.2073 105.239 7.96875 108 7.96875C110.761 7.96875 113 10.2073 113 12.9688C113 15.7302 110.761 17.9688 108 17.9688C105.239 17.9688 103 15.7302 103 12.9688Z" fill="#E3E6E8"/>
<path d="M85 12.9688C85 10.2073 87.2386 7.96875 90 7.96875C92.7614 7.96875 95 10.2073 95 12.9688C95 15.7302 92.7614 17.9688 90 17.9688C87.2386 17.9688 85 15.7302 85 12.9688Z" fill="#E3E6E8"/>
<path d="M4 12.9688C4 10.2073 6.23858 7.96875 9 7.96875C11.7614 7.96875 14 10.2073 14 12.9688C14 15.7302 11.7614 17.9688 9 17.9688C6.23858 17.9688 4 15.7302 4 12.9688Z" fill="#E3E6E8"/>
</svg>
